<?xml version="1.0" encoding="utf-8"?>
<!-- Generator: Adobe Illustrator 25.0.0, SVG Export Plug-In . SVG Version: 6.00 Build 0)  -->
<svg version="1.1" id="Layer_1" xmlns="http://www.w3.org/2000/svg" xmlns:xlink="http://www.w3.org/1999/xlink" x="0px" y="0px"
	 viewBox="0 0 500 500" style="enable-background:new 0 0 500 500;" xml:space="preserve">
<style type="text/css">
	.st0{fill:none;stroke:#000000;stroke-width:4;stroke-linecap:round;stroke-miterlimit:10;}
	.st1{font-family:'MyriadPro-Regular';}
	.st2{font-size:12px;}
	.st3{stroke:#000000;stroke-width:1.7148;stroke-miterlimit:10;}
	.st4{fill:#FFFFFF;stroke:#000000;stroke-width:1.7148;stroke-miterlimit:10;}
	.st5{fill:#FFE535;}
	.st6{fill:none;stroke:#FF0000;stroke-width:7.7167;stroke-linecap:round;stroke-miterlimit:10;}
	.st7{fill:none;stroke:#8CC63F;stroke-width:7.7167;stroke-linecap:round;stroke-miterlimit:10;}
</style>
<path class="st0" d="M469.19,427.62V75.39c0-23.09-18.72-41.81-41.81-41.81H75.15c-23.09,0-41.81,18.72-41.81,41.81v352.23
	c0,23.09,18.72,41.81,41.81,41.81h115.04"/>
<path class="st0" d="M427.38,469.43c23.09,0,41.81-18.72,41.81-41.81"/>
<path class="st0" d="M316.19,469.43h115.04"/>
<text transform="matrix(1 0 0 1 217.8782 469.4344)"><tspan x="0" y="0" class="st1 st2">FIG.2 ARTISTS </tspan><tspan x="-9.37" y="14.4" class="st1 st2">CURATE DATASET</tspan></text>
<path class="st3" d="M87.06,133.71l3.83,57.89h51.47c7.95,0,14.24-6.72,13.71-14.65l-3.38-51.01H94.34
	C90.12,125.93,86.78,129.5,87.06,133.71z"/>
<path class="st4" d="M82.01,128.88l3.83,57.89h51.47c7.95,0,14.24-6.72,13.71-14.65l-3.38-51.01H89.29
	C85.08,121.1,81.74,124.67,82.01,128.88z"/>
<path class="st3" d="M174.8,131.3l3.83,57.89h51.47c7.95,0,14.24-6.72,13.71-14.65l-3.38-51.01h-58.35
	C177.86,123.52,174.52,127.09,174.8,131.3z"/>
<path class="st4" d="M169.75,126.47l3.83,57.89h51.47c7.95,0,14.24-6.72,13.71-14.65l-3.38-51.01h-58.35
	C172.81,118.69,169.47,122.26,169.75,126.47z"/>
<path class="st3" d="M262.92,131.3l3.83,57.89h51.47c7.95,0,14.24-6.72,13.71-14.65l-3.38-51.01H270.2
	C265.98,123.52,262.64,127.09,262.92,131.3z"/>
<path class="st4" d="M257.87,126.47l3.83,57.89h51.47c7.95,0,14.24-6.72,13.71-14.65l-3.38-51.01h-58.35
	C260.93,118.69,257.6,122.26,257.87,126.47z"/>
<path class="st3" d="M349.83,131.3l3.83,57.89h51.47c7.95,0,14.24-6.72,13.71-14.65l-3.38-51.01h-58.35
	C352.89,123.52,349.55,127.09,349.83,131.3z"/>
<path class="st4" d="M344.78,126.47l3.83,57.89h51.47c7.95,0,14.24-6.72,13.71-14.65l-3.38-51.01h-58.35
	C347.84,118.69,344.5,122.26,344.78,126.47z"/>
<path class="st3" d="M88.72,222.31l3.83,57.89h51.47c7.95,0,14.24-6.72,13.71-14.65l-3.38-51.01H96
	C91.78,214.53,88.44,218.1,88.72,222.31z"/>
<path class="st4" d="M83.67,217.48l3.83,57.89h51.47c7.95,0,14.24-6.72,13.71-14.65l-3.38-51.01H90.95
	C86.73,209.7,83.39,213.27,83.67,217.48z"/>
<path class="st3" d="M176.45,219.89l3.83,57.89h51.47c7.95,0,14.24-6.72,13.71-14.65l-3.38-51.01h-58.35
	C179.51,212.12,176.17,215.68,176.45,219.89z"/>
<path class="st4" d="M171.4,215.07l3.83,57.89h51.47c7.95,0,14.24-6.72,13.71-14.65l-3.38-51.01h-58.35
	C174.47,207.29,171.13,210.86,171.4,215.07z"/>
<path class="st3" d="M264.57,219.89l3.83,57.89h51.47c7.95,0,14.24-6.72,13.71-14.65l-3.38-51.01h-58.35
	C267.64,212.12,264.3,215.68,264.57,219.89z"/>
<path class="st4" d="M259.53,215.07l3.83,57.89h51.47c7.95,0,14.24-6.72,13.71-14.65l-3.38-51.01h-58.35
	C262.59,207.29,259.25,210.86,259.53,215.07z"/>
<path class="st3" d="M351.48,219.89l3.83,57.89h51.47c7.95,0,14.24-6.72,13.71-14.65l-3.38-51.01h-58.35
	C354.54,212.12,351.2,215.68,351.48,219.89z"/>
<path class="st4" d="M346.44,215.07l3.83,57.89h51.47c7.95,0,14.24-6.72,13.71-14.65l-3.38-51.01h-58.35
	C349.5,207.29,346.16,210.86,346.44,215.07z"/>
<path class="st3" d="M88.72,310.67l3.83,57.89h51.47c7.95,0,14.24-6.72,13.71-14.65l-3.38-51.01H96
	C91.78,302.89,88.44,306.46,88.72,310.67z"/>
<path class="st4" d="M83.67,305.84l3.83,57.89h51.47c7.95,0,14.24-6.72,13.71-14.65l-3.38-51.01H90.95
	C86.73,298.06,83.39,301.63,83.67,305.84z"/>
<path class="st3" d="M176.45,308.25l3.83,57.89h51.47c7.95,0,14.24-6.72,13.71-14.65l-3.38-51.01h-58.35
	C179.51,300.47,176.17,304.04,176.45,308.25z"/>
<path class="st4" d="M171.4,303.42l3.83,57.89h51.47c7.95,0,14.24-6.72,13.71-14.65l-3.38-51.01h-58.35
	C174.47,295.65,171.13,299.21,171.4,303.42z"/>
<path class="st3" d="M264.57,308.25l3.83,57.89h51.47c7.95,0,14.24-6.72,13.71-14.65l-3.38-51.01h-58.35
	C267.64,300.47,264.3,304.04,264.57,308.25z"/>
<path class="st4" d="M259.53,303.42l3.83,57.89h51.47c7.95,0,14.24-6.72,13.71-14.65l-3.38-51.01h-58.35
	C262.59,295.65,259.25,299.21,259.53,303.42z"/>
<path class="st3" d="M351.48,308.25l3.83,57.89h51.47c7.95,0,14.24-6.72,13.71-14.65l-3.38-51.01h-58.35
	C354.54,300.47,351.2,304.04,351.48,308.25z"/>
<path class="st4" d="M346.44,303.42l3.83,57.89h51.47c7.95,0,14.24-6.72,13.71-14.65l-3.38-51.01h-58.35
	C349.5,295.65,346.16,299.21,346.44,303.42z"/>
<path class="st5" d="M99.79,135.35c0,0-14.48,16.42,0,30.9c14.48,14.48-5.79-14,11.11-12.31s-4.19,29.21,5.63,21.49
	s9.82,9.49,13.68,1.36c3.86-8.12,12.07-44.82,5.79-34.68"/>
<path class="st5" d="M186.22,135.35c0,0-12.55,25.11,0,26.56c12.55,1.45,10.14-31.87,14.48-18.35c4.35,13.52-5.43,29.45,3.56,23.66"
	/>
<path class="st5" d="M199.74,129.07c0,0,21.01,26.56,11.23,35.25s16.29,7.24,14.85-3.38"/>
<path class="st5" d="M197.41-13.41"/>
<path class="st5" d="M273.61,131.48c0,0-2.52,49.73,18.78,34.28"/>
<path class="st5" d="M290.03,131.48c0,0,16.9,11.11,13.52,24.87s10.14-2.41,10.14-2.41l-2.9-14.24L290.03,131.48z"/>
<path class="st5" d="M368.24,135.35c0,0,13.52,39.59,0,28s24.14-22.21,24.14-22.21l2.9,20.76l-7.24,6.54l-7.09-39.37"/>
<path class="st5" d="M359.07,222.26c13.04,20.28,36.21,8.21,36.21,8.21l-3.38,24.62h-26.59l11.86-40.56l7.17,25.59"/>
<polyline class="st5" points="282.95,223.7 297.43,263.78 306.1,240.12 "/>
<path class="st5" d="M192.45,226.6v31.38c0,0,47.84-1.93,28.05-13.04c-19.8-11.11-16.24-18.35-16.24-18.35l6.7,8.21l4.71-14"/>
<polyline class="st5" points="109.45,234.81 118.18,257.98 129.24,234.81 109.45,251.23 129.24,214.53 104.14,223.7 101.72,247.36 
	138.29,261.85 97.86,231.43 135.04,227.08 "/>
<polyline class="st5" points="188.63,315.44 218.08,335.72 188.63,344.41 204.26,313.03 222.43,333.31 205.92,347.31 196.84,307.23 
	"/>
<polygon class="st5" points="278.44,313.99 304.03,313.99 304.03,327.27 278.44,326.62 "/>
<path class="st5" d="M361.97,309.16c0,0,44.18-6.76,39.47,15.45c-4.71,22.21-34.16,20.28-34.16,20.28l21.73-20.28L361.97,309.16z"/>
<polyline class="st5" points="361.97,330.89 371.62,324.13 366.8,311.92 366.8,320.63 399.17,330.89 "/>
<path class="st5" d="M104.62,311.92c0,0,54.08,18.49,28,25.73s5.67-29.45,5.67-29.45l-33.67,32.35l33.67,9.66l-16.72-38.28"/>
<line class="st6" x1="97.11" y1="116.08" x2="135.65" y2="154.62"/>
<line class="st6" x1="135.94" y1="116.08" x2="97.4" y2="154.62"/>
<circle class="st7" cx="291.78" cy="129.07" r="22.37"/>
<line class="st6" x1="186.12" y1="201.54" x2="224.66" y2="240.08"/>
<line class="st6" x1="224.94" y1="201.54" x2="186.4" y2="240.08"/>
</svg>
