<?xml version="1.0" encoding="utf-8"?>
<!-- Generator: Adobe Illustrator 25.0.0, SVG Export Plug-In . SVG Version: 6.00 Build 0)  -->
<svg version="1.1" id="Layer_1" xmlns="http://www.w3.org/2000/svg" xmlns:xlink="http://www.w3.org/1999/xlink" x="0px" y="0px"
	 viewBox="0 0 500 500" style="enable-background:new 0 0 500 500;" xml:space="preserve">
<style type="text/css">
	.st0{fill:none;stroke:#000000;stroke-width:4;stroke-miterlimit:10;}
	.st1{fill:#FFFFFF;stroke:#000000;stroke-width:4;stroke-miterlimit:10;}
	.st2{fill:#FFE535;}
	.st3{fill:none;stroke:#000000;stroke-width:4;stroke-linecap:round;stroke-miterlimit:10;}
	.st4{fill:none;stroke:#000000;stroke-width:2;stroke-linecap:round;stroke-miterlimit:10;}
	.st5{font-family:'MyriadPro-Regular';}
	.st6{font-size:12px;}
	.st7{fill:#FFE535;stroke:#000000;stroke-width:4;stroke-linecap:round;stroke-miterlimit:10;}
</style>
<path class="st0" d="M314.98,153.79"/>
<path class="st1" d="M378,207c0,0-23.31,150.61,36.72,150.61c0,0-0.47,7.74-56.78,0"/>
<polyline class="st2" points="378,324 360,315 369,342 "/>
<path class="st1" d="M270.36,168.54c1.59-22.43,39.32-23.2,39.32-23.2s18.24,41.22,94.59,59.46
	c-37.16,81.76-45.95,120.27-47.3,155.41c0,0-3.95,2.83-11.73,0"/>
<path class="st1" d="M266.54,361.88c10.31,24.8,78.82,5.07,78.82,5.07c1.35-35.14-29.5-73.53,7.67-155.28
	c-76.35-18.24-94.59-59.46-94.59-59.46s-31.25,2.74-26.29,24.18"/>
<path class="st2" d="M323.63,270.72l-36-72c0,0-45-27-18,9s45,108,45,108l-36,18"/>
<path class="st1" d="M205.37,185.4c0.51-20.77,12.95-27.51,12.95-27.51s18.24,41.22,94.59,59.46
	c-37.16,81.76-45.95,120.27-47.3,155.41c0,0-16.92,2.62-30.11-7.37"/>
<path class="st0" d="M300.9,347.66"/>
<path class="st0" d="M334.69,283.47"/>
<path class="st3" d="M231.61,290.36"/>
<path class="st3" d="M190.22,272.26"/>
<path class="st3" d="M194.52,304.54"/>
<path class="st3" d="M173.8,232.55"/>
<path class="st3" d="M343.35,228.44"/>
<path class="st0" d="M329.83,169.52"/>
<path class="st0" d="M399.14,188.75"/>
<path class="st0" d="M385.05,190.67"/>
<path class="st0" d="M333.33,160.87"/>
<path class="st0" d="M333.33,160.87"/>
<path class="st0" d="M379.46,193.33"/>
<path class="st0" d="M376.38,196.28"/>
<path class="st0" d="M353.03,211.66"/>
<path class="st0" d="M404.28,221.38"/>
<path class="st2" d="M252,243c0,0,36-9,27,9s-27,54-27,54l-18-9l9,27l27-27l-27-18l-9-18l45-45l-63-27l18,153"/>
<path class="st1" d="M142.96,274.67c0,0-14.69,49.19-10.18,57.64c49.55-2.82,101.9,45.69,101.9,45.69
	c1.35-35.14,10.14-73.65,47.3-155.41c-76.35-18.24-94.59-59.46-94.59-59.46s-24.82,35.72-40.58,94.95"/>
<path class="st2" d="M173.8,232.55c0,0,87.15,62.46,51.2,64.45c-162,9,25.07-46.93,25.07-46.93L207,234l-9,36v-54c0,0-18,0,18,9
	s-9,90-9,90s-9-81-18-81"/>
<path class="st1" d="M63.92,266.79l95.95-10.07l18.92,5.03l-16.22,10.51l-98.65,12.16C63.92,284.42,55.14,276.85,63.92,266.79z"/>
<path class="st0" d="M159.87,256.72c0,0-6.08,7.43,2.7,15.54"/>
<path class="st3" d="M245.57,243.61"/>
<path class="st3" d="M181.29,208.33"/>
<path class="st3" d="M468,426.19V73.96c0-23.09-18.72-41.81-41.81-41.81H73.96c-23.09,0-41.81,18.72-41.81,41.81v352.23
	c0,23.09,18.72,41.81,41.81,41.81H189"/>
<path class="st3" d="M426.19,468c23.09,0,41.81-18.72,41.81-41.81"/>
<path class="st3" d="M315,468h115.04"/>
<path class="st4" d="M144,333"/>
<text transform="matrix(1 0 0 1 201.9907 468)"><tspan x="0" y="0" class="st5 st6">FIG.1 ARTISTS MAKE</tspan><tspan x="34.32" y="14.4" class="st5 st6">WORK</tspan></text>
<path class="st7" d="M189,234"/>
<path class="st0" d="M189,288"/>
</svg>
