<svg id="Layer_1" data-name="Layer 1" xmlns="http://www.w3.org/2000/svg" xmlns:xlink="http://www.w3.org/1999/xlink" viewBox="0 0 439.85 463.15"><defs><style>.cls-1,.cls-16,.cls-20,.cls-21,.cls-22,.cls-23,.cls-24{fill:none;}.cls-1,.cls-13,.cls-14,.cls-16,.cls-17,.cls-18{stroke:#000;}.cls-1,.cls-16,.cls-19,.cls-20,.cls-21,.cls-22,.cls-23,.cls-24{stroke-linecap:round;}.cls-1,.cls-13,.cls-14,.cls-16,.cls-17,.cls-18,.cls-19,.cls-20,.cls-21,.cls-22,.cls-23,.cls-24{stroke-miterlimit:10;}.cls-1,.cls-19,.cls-20,.cls-21,.cls-22,.cls-23,.cls-24{stroke-width:4px;}.cls-2{fill:url(#linear-gradient);}.cls-3{fill:#b3b3b3;}.cls-4{font-size:12px;font-family:MyriadPro-Regular, Myriad Pro;}.cls-5{letter-spacing:0.01em;}.cls-6{letter-spacing:0.01em;}.cls-7{letter-spacing:-0.08em;}.cls-8{letter-spacing:0em;}.cls-9{letter-spacing:-0.01em;}.cls-10{letter-spacing:-0.08em;}.cls-11{letter-spacing:-0.07em;}.cls-12{letter-spacing:0.02em;}.cls-13,.cls-14{stroke-width:1.17px;}.cls-14,.cls-18{fill:#fff;}.cls-15,.cls-19{fill:#ffe535;}.cls-16{stroke-width:2.86px;}.cls-17,.cls-18{stroke-width:2.18px;}.cls-19,.cls-20,.cls-21,.cls-22,.cls-23,.cls-24{stroke:blue;}.cls-21{stroke-dasharray:12.41 12.41;}.cls-22{stroke-dasharray:12.86 12.86;}.cls-23{stroke-dasharray:11.57 11.57;}.cls-24{stroke-dasharray:12.06 12.06;}</style><linearGradient id="linear-gradient" x1="82.23" y1="216.36" x2="445.54" y2="216.36" gradientUnits="userSpaceOnUse"><stop offset="0" stop-color="#fff"/><stop offset="1" stop-color="#ed6aa2"/></linearGradient></defs><path class="cls-1" d="M467.93,422.34V70.11A41.81,41.81,0,0,0,426.11,28.3H73.89A41.81,41.81,0,0,0,32.07,70.11V422.34a41.81,41.81,0,0,0,41.82,41.81h115" transform="translate(-30.07 -26.3)"/><path class="cls-1" d="M426.11,464.15a41.81,41.81,0,0,0,41.82-41.81" transform="translate(-30.07 -26.3)"/><path class="cls-1" d="M314.93,464.15H430" transform="translate(-30.07 -26.3)"/><path class="cls-2" d="M87.76,339.11c57.93,66.45,356.09-7.89,356.09-7.89L445.54,66S29.84,272.66,87.76,339.11Z" transform="translate(-30.07 -26.3)"/><path class="cls-3" d="M61.88,111.63V394.32c0,7.5,1.58,14.7,9.08,14.7H295.12a13.58,13.58,0,0,0,10.64-22L81.6,104.32C73.61,94.24,61.88,98.77,61.88,111.63Z" transform="translate(-30.07 -26.3)"/><text class="cls-4" transform="translate(185.02 416.95)">FIG.2 N<tspan class="cls-5" x="35.54" y="0">E</tspan><tspan x="41.56" y="0">W MEDIA</tspan><tspan x="6.94" y="14.4">IS GENE</tspan><tspan class="cls-6" x="45.72" y="14.4">R</tspan><tspan class="cls-7" x="52.24" y="14.4">A</tspan><tspan x="58.66" y="14.4">TED </tspan><tspan x="27.6" y="28.8">F</tspan><tspan class="cls-8" x="33.45" y="28.8">R</tspan><tspan x="39.94" y="28.8">OM </tspan><tspan class="cls-9" x="21.69" y="43.2">D</tspan><tspan class="cls-10" x="29.51" y="43.2">A</tspan><tspan class="cls-11" x="35.93" y="43.2">T</tspan><tspan x="41" y="43.2">AS</tspan><tspan class="cls-12" x="54.26" y="43.2">E</tspan><tspan x="60.35" y="43.2">T</tspan></text><path class="cls-13" d="M70.81,82.35l2.61,39.36h35a9.35,9.35,0,0,0,9.33-10l-2.3-34.69H75.76A5,5,0,0,0,70.81,82.35Z" transform="translate(-30.07 -26.3)"/><path class="cls-14" d="M67.38,79.07,70,118.43h35a9.34,9.34,0,0,0,9.32-10L112,73.78H72.33A5,5,0,0,0,67.38,79.07Z" transform="translate(-30.07 -26.3)"/><path class="cls-13" d="M128.35,82.35l2.6,39.36h35a9.34,9.34,0,0,0,9.32-10L173,77.06H133.3A5,5,0,0,0,128.35,82.35Z" transform="translate(-30.07 -26.3)"/><path class="cls-14" d="M124.92,79.07l2.6,39.36h35a9.34,9.34,0,0,0,9.32-10l-2.29-34.69H129.87A5,5,0,0,0,124.92,79.07Z" transform="translate(-30.07 -26.3)"/><path class="cls-13" d="M72.81,136.4l2.61,39.36h35a9.35,9.35,0,0,0,9.33-10l-2.3-34.69H77.76A5,5,0,0,0,72.81,136.4Z" transform="translate(-30.07 -26.3)"/><path class="cls-14" d="M69.38,133.12,72,172.48h35a9.36,9.36,0,0,0,9.33-10L114,127.83H74.33A5,5,0,0,0,69.38,133.12Z" transform="translate(-30.07 -26.3)"/><path class="cls-13" d="M130.35,135.58l2.6,39.36h35a9.36,9.36,0,0,0,9.33-10L175,130.29H135.3A5,5,0,0,0,130.35,135.58Z" transform="translate(-30.07 -26.3)"/><path class="cls-14" d="M126.92,132.3l2.6,39.36h35a9.34,9.34,0,0,0,9.32-10L171.55,127H131.87A5,5,0,0,0,126.92,132.3Z" transform="translate(-30.07 -26.3)"/><path class="cls-13" d="M73.38,190,76,229.36h35a9.35,9.35,0,0,0,9.33-10L118,184.71H78.33A5,5,0,0,0,73.38,190Z" transform="translate(-30.07 -26.3)"/><path class="cls-14" d="M70,186.72l2.6,39.36h35a9.34,9.34,0,0,0,9.32-10l-2.29-34.69H74.9A5,5,0,0,0,70,186.72Z" transform="translate(-30.07 -26.3)"/><path class="cls-13" d="M133.29,190l2.61,39.36h35a9.35,9.35,0,0,0,9.33-10l-2.3-34.69H138.24A5,5,0,0,0,133.29,190Z" transform="translate(-30.07 -26.3)"/><path class="cls-14" d="M129.86,186.72l2.6,39.36h35a9.34,9.34,0,0,0,9.32-10l-2.29-34.69H134.81A5,5,0,0,0,129.86,186.72Z" transform="translate(-30.07 -26.3)"/><path class="cls-15" d="M79.47,83.46s-9.85,11.17,0,21S75.53,95,87,96.1,84.17,116,90.85,110.71s6.68,6.46,9.3.93,8.21-30.47,3.94-23.58" transform="translate(-30.07 -26.3)"/><path class="cls-15" d="M136.11,85.11s-8.53,17.07,0,18S143,81.49,146,90.69s-3.69,20,2.42,16.09" transform="translate(-30.07 -26.3)"/><path class="cls-15" d="M145.31,80.84s14.28,18.06,7.63,24,11.08,4.92,10.1-2.3" transform="translate(-30.07 -26.3)"/><path class="cls-15" d="M196.15-18.69" transform="translate(-30.07 -26.3)"/><path class="cls-15" d="M141.23,140.14v21.34s32.53-1.31,19.07-8.86-11-12.48-11-12.48l4.56,5.58,3.2-9.52" transform="translate(-30.07 -26.3)"/><polyline class="cls-15" points="56.84 118.6 62.77 134.36 70.3 118.6 56.84 129.77 70.3 104.81 53.23 111.05 51.59 127.14 76.45 136.99 48.96 116.31 74.24 113.35"/><polyline class="cls-15" points="111.5 168.59 131.53 182.38 111.5 188.29 122.13 166.95 134.48 180.74 123.25 190.26 117.08 163.01"/><path class="cls-15" d="M84.2,190.86s36.77,12.57,19,17.49,3.85-20,3.85-20l-22.89,22,22.89,6.57-11.37-26" transform="translate(-30.07 -26.3)"/><path class="cls-13" d="M185.68,82.35l2.61,39.36h35a9.35,9.35,0,0,0,9.33-10l-2.3-34.69H190.63A5,5,0,0,0,185.68,82.35Z" transform="translate(-30.07 -26.3)"/><path class="cls-14" d="M182.25,79.07l2.6,39.36h35a9.34,9.34,0,0,0,9.32-10l-2.29-34.69H187.2A5,5,0,0,0,182.25,79.07Z" transform="translate(-30.07 -26.3)"/><path class="cls-13" d="M243.22,82.35l2.6,39.36h35a9.34,9.34,0,0,0,9.32-10l-2.29-34.69H248.17A5,5,0,0,0,243.22,82.35Z" transform="translate(-30.07 -26.3)"/><path class="cls-14" d="M239.79,79.07l2.6,39.36h35a9.34,9.34,0,0,0,9.32-10l-2.29-34.69H244.74A5,5,0,0,0,239.79,79.07Z" transform="translate(-30.07 -26.3)"/><path class="cls-13" d="M187.68,136.4l2.61,39.36h35a9.35,9.35,0,0,0,9.33-10l-2.3-34.69H192.63A5,5,0,0,0,187.68,136.4Z" transform="translate(-30.07 -26.3)"/><path class="cls-14" d="M184.25,133.12l2.6,39.36h35a9.36,9.36,0,0,0,9.33-10l-2.3-34.69H189.2A5,5,0,0,0,184.25,133.12Z" transform="translate(-30.07 -26.3)"/><path class="cls-13" d="M245.22,134.76l2.6,39.36h35a9.36,9.36,0,0,0,9.33-10l-2.3-34.69H250.17A5,5,0,0,0,245.22,134.76Z" transform="translate(-30.07 -26.3)"/><path class="cls-14" d="M241.79,131.48l2.6,39.36h35a9.34,9.34,0,0,0,9.32-10l-2.29-34.69H246.74A5,5,0,0,0,241.79,131.48Z" transform="translate(-30.07 -26.3)"/><path class="cls-13" d="M190,190l2.6,39.36h35a9.34,9.34,0,0,0,9.32-10l-2.29-34.69H194.92A5,5,0,0,0,190,190Z" transform="translate(-30.07 -26.3)"/><path class="cls-14" d="M186.53,186.72l2.61,39.36h35a9.34,9.34,0,0,0,9.33-10l-2.3-34.69H191.48A5,5,0,0,0,186.53,186.72Z" transform="translate(-30.07 -26.3)"/><path class="cls-13" d="M248.16,190l2.61,39.36h35a9.35,9.35,0,0,0,9.33-10l-2.3-34.69H253.11A5,5,0,0,0,248.16,190Z" transform="translate(-30.07 -26.3)"/><path class="cls-14" d="M244.73,186.72l2.6,39.36h35a9.34,9.34,0,0,0,9.32-10l-2.29-34.69H249.68A5,5,0,0,0,244.73,186.72Z" transform="translate(-30.07 -26.3)"/><path class="cls-15" d="M194.34,83.46s-9.85,11.17,0,21S190.4,95,201.89,96.1,199,116,205.72,110.71s6.68,6.46,9.3.93,8.21-30.47,3.94-23.58" transform="translate(-30.07 -26.3)"/><path class="cls-15" d="M251,85.11s-8.53,17.07,0,18,6.9-21.67,9.85-12.47-3.69,20,2.42,16.09" transform="translate(-30.07 -26.3)"/><path class="cls-15" d="M260.18,80.84s14.28,18.06,7.63,24,11.08,4.92,10.1-2.3" transform="translate(-30.07 -26.3)"/><path class="cls-15" d="M256.1,139.32v21.34s32.53-1.31,19.07-8.86-11-12.48-11-12.48l4.56,5.58,3.2-9.52" transform="translate(-30.07 -26.3)"/><polyline class="cls-15" points="171.71 118.6 177.64 134.36 185.17 118.6 171.71 129.77 185.17 104.81 168.1 111.05 166.46 127.14 191.32 136.99 163.83 116.31 189.11 113.35"/><polyline class="cls-15" points="226.37 168.59 246.4 182.38 226.37 188.29 237 166.95 249.35 180.74 238.12 190.26 231.95 163.01"/><path class="cls-15" d="M200.78,190.86s36.77,12.57,19,17.49,3.86-20,3.86-20l-22.9,22,22.9,6.57-11.37-26" transform="translate(-30.07 -26.3)"/><path class="cls-13" d="M77.25,246.88l2.6,39.36h35a9.34,9.34,0,0,0,9.32-10l-2.29-34.69H82.2A5,5,0,0,0,77.25,246.88Z" transform="translate(-30.07 -26.3)"/><path class="cls-14" d="M73.81,243.6,76.42,283h35a9.34,9.34,0,0,0,9.33-10l-2.3-34.69H78.76A5,5,0,0,0,73.81,243.6Z" transform="translate(-30.07 -26.3)"/><path class="cls-13" d="M134.78,246.88l2.61,39.36h35a9.34,9.34,0,0,0,9.33-10l-2.3-34.69H139.73A5,5,0,0,0,134.78,246.88Z" transform="translate(-30.07 -26.3)"/><path class="cls-14" d="M131.35,243.6,134,283h35a9.36,9.36,0,0,0,9.33-10L176,238.31H136.3A5,5,0,0,0,131.35,243.6Z" transform="translate(-30.07 -26.3)"/><path class="cls-13" d="M79.25,300.93l2.6,39.37h35a9.34,9.34,0,0,0,9.32-10l-2.29-34.69H84.2A5,5,0,0,0,79.25,300.93Z" transform="translate(-30.07 -26.3)"/><path class="cls-14" d="M75.81,297.65,78.42,337h35a9.34,9.34,0,0,0,9.33-10l-2.3-34.69H80.76A5,5,0,0,0,75.81,297.65Z" transform="translate(-30.07 -26.3)"/><path class="cls-13" d="M136.78,300.11l2.61,39.36h35a9.34,9.34,0,0,0,9.33-10l-2.3-34.69H141.73A5,5,0,0,0,136.78,300.11Z" transform="translate(-30.07 -26.3)"/><path class="cls-14" d="M133.35,296.83l2.6,39.36h35a9.35,9.35,0,0,0,9.33-10L178,291.54H138.3A5,5,0,0,0,133.35,296.83Z" transform="translate(-30.07 -26.3)"/><path class="cls-13" d="M79.81,354.53l2.61,39.36h35a9.34,9.34,0,0,0,9.33-10l-2.3-34.69H84.76A5,5,0,0,0,79.81,354.53Z" transform="translate(-30.07 -26.3)"/><path class="cls-14" d="M76.38,351.25,79,390.61h35a9.35,9.35,0,0,0,9.33-10L121,346H81.33A5,5,0,0,0,76.38,351.25Z" transform="translate(-30.07 -26.3)"/><path class="cls-13" d="M139.72,354.53l2.61,39.36h35a9.34,9.34,0,0,0,9.32-10l-2.3-34.69H144.67A5,5,0,0,0,139.72,354.53Z" transform="translate(-30.07 -26.3)"/><path class="cls-14" d="M136.29,351.25l2.61,39.36h35a9.35,9.35,0,0,0,9.33-10L180.92,346H141.24A5,5,0,0,0,136.29,351.25Z" transform="translate(-30.07 -26.3)"/><path class="cls-15" d="M85.9,248s-9.85,11.16,0,21-3.94-9.52,7.55-8.37-2.85,19.86,3.83,14.61,6.68,6.45,9.31.92,8.2-30.47,3.94-23.58" transform="translate(-30.07 -26.3)"/><path class="cls-15" d="M142.55,249.64s-8.54,17.07,0,18.05,6.89-21.66,9.85-12.47-3.7,20,2.42,16.09" transform="translate(-30.07 -26.3)"/><path class="cls-15" d="M151.74,245.37s14.28,18.06,7.63,24,11.08,4.92,10.1-2.3" transform="translate(-30.07 -26.3)"/><path class="cls-15" d="M147.66,304.67V326s32.54-1.31,19.07-8.86-11-12.48-11-12.48l4.56,5.58,3.2-9.52" transform="translate(-30.07 -26.3)"/><polyline class="cls-15" points="80.67 277.88 55.39 280.84 82.89 301.52 58.02 291.67 59.66 275.58 76.73 269.35 63.27 294.3 76.73 283.13 69.21 298.89 63.27 283.13"/><polyline class="cls-15" points="117.93 333.12 137.96 346.91 117.93 352.82 128.56 331.48 140.92 345.27 129.69 354.79 123.52 327.54"/><path class="cls-15" d="M90.63,355.39s36.77,12.57,19,17.49,3.86-20,3.86-20l-22.9,22,22.9,6.57-11.37-26" transform="translate(-30.07 -26.3)"/><path class="cls-13" d="M192.12,246.88l2.6,39.36h35a9.34,9.34,0,0,0,9.32-10l-2.29-34.69H197.07A5,5,0,0,0,192.12,246.88Z" transform="translate(-30.07 -26.3)"/><path class="cls-14" d="M188.68,243.6,191.29,283h35a9.34,9.34,0,0,0,9.33-10l-2.3-34.69H193.63A5,5,0,0,0,188.68,243.6Z" transform="translate(-30.07 -26.3)"/><path class="cls-13" d="M249.65,246.88l2.61,39.36h35a9.34,9.34,0,0,0,9.33-10l-2.3-34.69H254.6A5,5,0,0,0,249.65,246.88Z" transform="translate(-30.07 -26.3)"/><path class="cls-14" d="M246.22,243.6l2.6,39.36h35a9.36,9.36,0,0,0,9.33-10l-2.3-34.69H251.17A5,5,0,0,0,246.22,243.6Z" transform="translate(-30.07 -26.3)"/><path class="cls-13" d="M194.12,300.93l2.6,39.37h35a9.34,9.34,0,0,0,9.32-10l-2.29-34.69H199.07A5,5,0,0,0,194.12,300.93Z" transform="translate(-30.07 -26.3)"/><path class="cls-14" d="M190.68,297.65,193.29,337h35a9.34,9.34,0,0,0,9.33-10l-2.3-34.69H195.63A5,5,0,0,0,190.68,297.65Z" transform="translate(-30.07 -26.3)"/><path class="cls-13" d="M251.65,299.29l2.61,39.36h35a9.34,9.34,0,0,0,9.33-10L296.28,294H256.6A5,5,0,0,0,251.65,299.29Z" transform="translate(-30.07 -26.3)"/><path class="cls-14" d="M248.22,296l2.6,39.36h35a9.35,9.35,0,0,0,9.33-10l-2.3-34.69H253.17A5,5,0,0,0,248.22,296Z" transform="translate(-30.07 -26.3)"/><path class="cls-13" d="M196.4,354.53l2.6,39.36h35a9.35,9.35,0,0,0,9.33-10L241,349.24H201.35A5,5,0,0,0,196.4,354.53Z" transform="translate(-30.07 -26.3)"/><path class="cls-14" d="M193,351.25l2.6,39.36h35a9.34,9.34,0,0,0,9.32-10L237.6,346H197.92A5,5,0,0,0,193,351.25Z" transform="translate(-30.07 -26.3)"/><path class="cls-13" d="M254.59,354.53l2.61,39.36h35a9.34,9.34,0,0,0,9.32-10l-2.3-34.69H259.54A5,5,0,0,0,254.59,354.53Z" transform="translate(-30.07 -26.3)"/><path class="cls-14" d="M251.16,351.25l2.61,39.36h35a9.35,9.35,0,0,0,9.33-10L295.79,346H256.11A5,5,0,0,0,251.16,351.25Z" transform="translate(-30.07 -26.3)"/><path class="cls-15" d="M200.77,248s-9.85,11.16,0,21-3.94-9.52,7.55-8.37-2.85,19.86,3.83,14.61,6.68,6.45,9.31.92,8.2-30.47,3.94-23.58" transform="translate(-30.07 -26.3)"/><path class="cls-15" d="M257.42,249.64s-8.54,17.07,0,18.05,6.89-21.66,9.85-12.47-3.7,20,2.42,16.09" transform="translate(-30.07 -26.3)"/><path class="cls-15" d="M266.61,245.37s14.28,18.06,7.63,24,11.08,4.92,10.1-2.3" transform="translate(-30.07 -26.3)"/><path class="cls-15" d="M262.53,303.85v21.34s32.54-1.31,19.07-8.86-11-12.48-11-12.48l4.56,5.58,3.2-9.52" transform="translate(-30.07 -26.3)"/><polyline class="cls-15" points="178.14 283.13 184.08 298.89 191.6 283.13 178.14 294.3 191.6 269.35 174.53 275.58 172.89 291.67 197.76 301.52 170.26 280.84 195.54 277.88"/><polyline class="cls-15" points="232.8 333.12 252.83 346.91 232.8 352.82 243.43 331.48 255.79 345.27 244.56 354.79 238.38 327.54"/><path class="cls-15" d="M207.22,355.39s36.77,12.57,19,17.49,3.85-20,3.85-20l-22.89,22,22.89,6.57-11.37-26" transform="translate(-30.07 -26.3)"/><path class="cls-16" d="M298.11,94.75s10.62-3.38,10.62,12.86c0,14.5,16.2,210.39,19.66,252.08,0,0,1.35,15.22-13,16.75" transform="translate(-30.07 -26.3)"/><line class="cls-16" x1="285.88" y1="180.74" x2="303.26" y2="180.74"/><path class="cls-17" d="M342.63,105.32l4.87,73.59h65.43a17.47,17.47,0,0,0,17.43-18.62l-4.29-64.86H351.89A9.29,9.29,0,0,0,342.63,105.32Z" transform="translate(-30.07 -26.3)"/><path class="cls-18" d="M336.22,99.18l4.87,73.59h65.42a17.46,17.46,0,0,0,17.43-18.62L419.65,89.3H345.47A9.26,9.26,0,0,0,336.22,99.18Z" transform="translate(-30.07 -26.3)"/><path class="cls-15" d="M357.15,110.47s-16,31.92,0,33.76,12.89-40.51,18.41-23.32,20.56-3.07,32-10.44" transform="translate(-30.07 -26.3)"/><path class="cls-15" d="M407.56,121.71s-26.25,24.16-32.69,14.49c-9.31,14-22.92,15.6-22.92,15.6l48.7-1.65S407.56,133,407.56,121.71Z" transform="translate(-30.07 -26.3)"/><path class="cls-17" d="M345.84,242.11l4.87,73.59h65.43a17.47,17.47,0,0,0,17.43-18.63l-4.29-64.85H355.1A9.28,9.28,0,0,0,345.84,242.11Z" transform="translate(-30.07 -26.3)"/><path class="cls-18" d="M339.43,236l4.87,73.59h65.42a17.47,17.47,0,0,0,17.43-18.63l-4.29-64.85H348.68A9.27,9.27,0,0,0,339.43,236Z" transform="translate(-30.07 -26.3)"/><path class="cls-15" d="M360.36,247.26s-16,31.91,0,33.76,12.89-40.52,18.41-23.33,20.56-3.07,32-10.43" transform="translate(-30.07 -26.3)"/><path class="cls-15" d="M410.76,258.5S384.52,282.66,378.08,273c-9.31,13.95-22.92,15.59-22.92,15.59l48.7-1.64S410.76,269.74,410.76,258.5Z" transform="translate(-30.07 -26.3)"/><path class="cls-19" d="M-243.16,253.51" transform="translate(-30.07 -26.3)"/><line class="cls-20" x1="137.96" y1="346.91" x2="139.83" y2="341.21"/><line class="cls-21" x1="143.71" y1="329.42" x2="226.95" y2="75.98"/><polyline class="cls-20" points="228.89 70.09 230.76 64.39 231.21 70.37"/><line class="cls-22" x1="232.17" y1="83.19" x2="243.24" y2="230.64"/><polyline class="cls-20" points="243.72 237.06 244.17 243.04 239.77 238.96"/><line class="cls-23" x1="231.27" y1="231.1" x2="65.6" y2="77.81"/><polyline class="cls-20" points="61.35 73.88 56.95 69.81 57.42 75.79"/><polyline class="cls-24" points="58.37 87.81 65.77 181.04 116.63 228.06"/><line class="cls-20" x1="121.05" y1="232.15" x2="125.46" y2="236.22"/></svg>