<?xml version="1.0" encoding="utf-8"?>
<!-- Generator: Adobe Illustrator 25.0.0, SVG Export Plug-In . SVG Version: 6.00 Build 0)  -->
<svg version="1.1" id="Layer_1" xmlns="http://www.w3.org/2000/svg" xmlns:xlink="http://www.w3.org/1999/xlink" x="0px" y="0px"
	 viewBox="0 0 500 700" style="enable-background:new 0 0 500 700;" xml:space="preserve">
<style type="text/css">
	.st0{fill:none;stroke:#000000;stroke-width:4;stroke-linecap:round;stroke-miterlimit:10;}
	.st1{font-family:'MyriadPro-Regular';}
	.st2{font-size:12px;}
	.st3{stroke:#000000;stroke-width:3.8982;stroke-miterlimit:10;}
	.st4{fill:#FFFFFF;stroke:#000000;stroke-width:3.8982;stroke-miterlimit:10;}
	.st5{fill:#ED1C24;}
	.st6{fill:#FFE535;}
	.st7{opacity:0.4;fill:#009245;}
	.st8{opacity:0.4;fill:#FF00FF;}
	.st9{fill:#FFFF00;}
	.st10{stroke:#000000;stroke-width:1.7148;stroke-miterlimit:10;}
	.st11{fill:#FFFFFF;stroke:#000000;stroke-width:1.7148;stroke-miterlimit:10;}
	.st12{fill:none;stroke:#000000;stroke-width:27;stroke-miterlimit:10;}
	.st13{fill:none;}
	.st14{fill:none;stroke:#000000;stroke-width:23;stroke-miterlimit:10;}
</style>
<path class="st0" d="M467.93,543.47V88.69c0-29.1-18.72-52.69-41.81-52.69H73.89c-23.09,0-41.81,23.59-41.81,52.69v443.89
	c0,29.1,18.72,52.69,41.81,52.69h241.04"/>
<path class="st0" d="M426.11,585.28c23.09,0,41.81-18.72,41.81-41.81"/>
<path class="st0" d="M314.93,585.28h115.04"/>
<text transform="matrix(1 0 0 1 236.1764 614.8004)"><tspan x="0" y="0" class="st1 st2">FIG.4 </tspan><tspan x="-91.18" y="14.4" class="st1 st2">ARTISTS REFLECT ON GENERATED IMAGES</tspan><tspan x="-78.33" y="28.8" class="st1 st2">AND DISCUSS WHICH DIRECTION TO  </tspan><tspan x="-36.38" y="43.2" class="st1 st2">MOVE AS A GROUP. </tspan><tspan x="-50.17" y="57.6" class="st1 st2">THE STEPS THEN REPEAT. </tspan><tspan x="12.55" y="72" class="st1 st2"> </tspan></text>
<path class="st3" d="M73.88,88.68L82.57,220H199.3c18.06,0,32.36-15.28,31.17-33.3L222.81,71H90.43
	C80.84,71,73.25,79.11,73.88,88.68z"/>
<path class="st4" d="M62.41,77.68L71.1,209h116.72c18.06,0,32.36-15.28,31.17-33.3L211.33,60H78.96
	C69.37,60,61.77,68.11,62.41,77.68z"/>
<path class="st5" d="M189.83,98.02c-20.44,13.17-47.33,49.39-57.21,18.66s-4.39,45-32.93,41.71s0-60.37,0-60.37l9.51-10.6
	l0.38,13.89l6.76-13.89l3,14.64l3.75-13.14l5.26,12.01l4.13-9.01l5.94,7.88l1.7-9.76l4.75,19.9l-1.13-26.28l11.64,27.03l-4.88-31.53
	l12.39,29.66l-7.13-29.66l14.27,24.78l-8.63-24.78l13.51,16.89l-8.26-19.52L189.83,98.02z"/>
<path class="st6" d="M189.83,118.12c0,0-46.93,43.2-58.45,25.91c-16.65,24.95-40.97,27.89-40.97,27.89l87.07-2.94
	C177.48,168.98,189.83,138.22,189.83,118.12z"/>
<path class="st3" d="M280.98,88.68L289.67,220h116.72c18.06,0,32.36-15.28,31.17-33.3L429.9,71H297.53
	C287.94,71,280.34,79.11,280.98,88.68z"/>
<path class="st4" d="M269.5,77.68L278.19,209h116.72c18.06,0,32.36-15.28,31.17-33.3L418.43,60H286.05
	C276.46,60,268.87,68.11,269.5,77.68z"/>
<path class="st6" d="M345.51,251.84"/>
<path class="st6" d="M314.55,83.66"/>
<polyline class="st5" points="157,132 157,181.27 165.63,128.25 "/>
<polyline class="st5" points="172.27,123.83 170.39,181.27 181.28,118.12 "/>
<path class="st5" d="M98.69,174.51l43.92-13.89c0,0-30.03,20.65-38.67,20.65"/>
<polygon class="st5" points="130.23,181 147.87,164.48 136.61,181 "/>
<path class="st7" d="M322.73,177.15c2.51,6.82,21.97,5.95,43.48-1.95s44.58-5.53,42.07-12.35c-2.51-6.82-29.64-20.25-51.15-12.35
	C335.63,158.4,320.22,170.33,322.73,177.15z"/>
<path class="st8" d="M333.03,72.66c0,0,20.81,24.99,12.18,47.6c2.78-12.79,9.83-24.75,15.38-32.68c2.7-3.85,8.7-2.55,9.53,2.08
	c5.74,32.04,22.83,116.32,38.16,81.36"/>
<path class="st8" d="M325.73,76.53c0,0,20.81,24.99,12.18,47.6c2.78-12.79,9.83-24.75,15.38-32.68c2.7-3.85,8.7-2.55,9.53,2.08
	c5.74,32.04,22.83,116.32,38.16,81.36"/>
<path class="st8" d="M314.55,76.53c0,0,20.81,24.99,12.18,47.6c2.78-12.79,9.83-24.75,15.38-32.68c2.7-3.85,8.7-2.55,9.53,2.08
	c5.74,32.04,22.83,116.32,38.16,81.36"/>
<path class="st8" d="M304.71,79.13c0,0,20.81,24.99,12.18,47.6c2.78-12.79,9.83-24.75,15.38-32.68c2.7-3.85,8.7-2.55,9.53,2.08
	c5.74,32.04,22.83,116.32,38.16,81.36"/>
<path class="st7" d="M302.78,132.69c2.51,6.82,21.97,5.95,43.48-1.95s44.58-5.53,42.07-12.35c-2.51-6.82-29.64-20.25-51.15-12.35
	S300.27,125.86,302.78,132.69z"/>
<circle class="st9" cx="314.5" cy="154.5" r="11.5"/>
<path class="st10" d="M84.11,249.78L87.96,308h51.8c7.95,0,14.24-6.72,13.71-14.65l-3.4-51.35H91.39
	C87.17,242,83.83,245.57,84.11,249.78z"/>
<path class="st11" d="M79.06,244.78L82.91,303h51.8c7.95,0,14.24-6.72,13.71-14.65l-3.4-51.35H86.34
	C82.12,237,78.78,240.57,79.06,244.78z"/>
<path class="st10" d="M170.97,249.78l3.85,58.22h51.8c7.95,0,14.24-6.72,13.71-14.65l-3.4-51.35h-58.69
	C174.03,242,170.69,245.57,170.97,249.78z"/>
<path class="st11" d="M165.92,244.78l3.85,58.22h51.8c7.95,0,14.24-6.72,13.71-14.65l-3.4-51.35H173.2
	C168.98,237,165.64,240.57,165.92,244.78z"/>
<path class="st10" d="M259.09,249.78l3.85,58.22h51.8c7.95,0,14.24-6.72,13.71-14.65l-3.4-51.35h-58.69
	C262.15,242,258.81,245.57,259.09,249.78z"/>
<path class="st11" d="M254.04,244.78L257.9,303h51.8c7.95,0,14.24-6.72,13.71-14.65l-3.4-51.35h-58.69
	C257.1,237,253.77,240.57,254.04,244.78z"/>
<path class="st10" d="M346,249.78l3.85,58.22h51.8c7.95,0,14.24-6.72,13.71-14.65l-3.4-51.35h-58.69
	C349.06,242,345.72,245.57,346,249.78z"/>
<path class="st11" d="M340.95,244.78l3.85,58.22h51.8c7.95,0,14.24-6.72,13.71-14.65l-3.4-51.35h-58.69
	C344.01,237,340.67,240.57,340.95,244.78z"/>
<polyline class="st6" points="183.33,256.79 212.78,277.07 183.33,285.76 198.96,254.38 217.13,274.66 200.61,288.66 191.54,248.58 
	"/>
<polygon class="st6" points="273,255 299,255 299,268.28 273,267.62 "/>
<path class="st6" d="M356.66,250.51c0,0,44.18-6.76,39.47,15.45s-34.16,20.28-34.16,20.28l21.73-20.28L356.66,250.51z"/>
<polyline class="st6" points="356.17,272.24 365.83,265.48 361,253.27 361,261.98 393.37,272.24 "/>
<path class="st6" d="M100.19,250.86c0,0,54.08,18.49,28,25.73c-26.07,7.24,5.67-29.45,5.67-29.45l-33.67,32.35l33.67,9.66
	l-16.72-38.28"/>
<path class="st10" d="M89.61,331.78L93.46,390h51.8c7.95,0,14.24-6.72,13.71-14.65l-3.4-51.35H96.89
	C92.67,324,89.33,327.57,89.61,331.78z"/>
<path class="st11" d="M84.56,326.78L88.42,385h51.8c7.95,0,14.24-6.72,13.71-14.65l-3.4-51.35H91.84
	C87.62,319,84.28,322.57,84.56,326.78z"/>
<path class="st10" d="M176.48,331.78l3.85,58.22h51.8c7.95,0,14.24-6.72,13.71-14.65l-3.4-51.35h-58.69
	C179.54,324,176.2,327.57,176.48,331.78z"/>
<path class="st11" d="M171.43,326.78l3.85,58.22h51.8c7.95,0,14.24-6.72,13.71-14.65L237.4,319h-58.69
	C174.49,319,171.15,322.57,171.43,326.78z"/>
<path class="st10" d="M264.6,331.78l3.85,58.22h51.8c7.95,0,14.24-6.72,13.71-14.65l-3.4-51.35h-58.69
	C267.66,324,264.32,327.57,264.6,331.78z"/>
<path class="st11" d="M259.55,326.78L263.4,385h51.8c7.95,0,14.24-6.72,13.71-14.65l-3.4-51.35h-58.69
	C262.61,319,259.27,322.57,259.55,326.78z"/>
<path class="st10" d="M351.51,331.78l3.85,58.22h51.8c7.95,0,14.24-6.72,13.71-14.65l-3.4-51.35h-58.69
	C354.57,324,351.23,327.57,351.51,331.78z"/>
<path class="st11" d="M346.46,326.78l3.85,58.22h51.8c7.95,0,14.24-6.72,13.71-14.65l-3.4-51.35h-58.69
	C349.52,319,346.18,322.57,346.46,326.78z"/>
<polyline class="st6" points="188.84,339.05 218.29,359.33 188.84,368.02 204.47,336.64 222.63,356.92 206.12,370.92 197.04,330.85 
	"/>
<polygon class="st6" points="278,338 304,338 304,351.28 278,350.62 "/>
<path class="st6" d="M362.17,332.78c0,0,44.18-6.76,39.47,15.45c-4.71,22.21-34.16,20.28-34.16,20.28l21.73-20.28L362.17,332.78z"/>
<polyline class="st6" points="362.17,354.5 371.83,347.75 367,335.54 367,344.24 399.37,354.5 "/>
<path class="st6" d="M105.7,333.12c0,0,54.08,18.49,28,25.73c-26.07,7.24,5.67-29.45,5.67-29.45l-33.67,32.35l33.67,9.66
	l-16.72-38.28"/>
<path class="st10" d="M91.09,416.78L94.95,475h51.8c7.95,0,14.24-6.72,13.71-14.65l-3.4-51.35H98.37
	C94.15,409,90.81,412.57,91.09,416.78z"/>
<path class="st11" d="M86.04,411.78L89.9,470h51.8c7.95,0,14.24-6.72,13.71-14.65l-3.4-51.35H93.32
	C89.1,404,85.77,407.57,86.04,411.78z"/>
<path class="st10" d="M177.96,416.78l3.85,58.22h51.8c7.95,0,14.24-6.72,13.71-14.65l-3.4-51.35h-58.69
	C181.02,409,177.68,412.57,177.96,416.78z"/>
<path class="st11" d="M172.91,411.78l3.85,58.22h51.8c7.95,0,14.24-6.72,13.71-14.65l-3.4-51.35h-58.69
	C175.97,404,172.63,407.57,172.91,411.78z"/>
<path class="st10" d="M266.08,416.78l3.85,58.22h51.8c7.95,0,14.24-6.72,13.71-14.65l-3.4-51.35h-58.69
	C269.14,409,265.8,412.57,266.08,416.78z"/>
<path class="st11" d="M261.03,411.78l3.85,58.22h51.8c7.95,0,14.24-6.72,13.71-14.65L327,404h-58.69
	C264.09,404,260.75,407.57,261.03,411.78z"/>
<path class="st10" d="M352.99,416.78l3.85,58.22h51.8c7.95,0,14.24-6.72,13.71-14.65l-3.4-51.35h-58.69
	C356.05,409,352.71,412.57,352.99,416.78z"/>
<path class="st11" d="M347.94,411.78l3.85,58.22h51.8c7.95,0,14.24-6.72,13.71-14.65l-3.4-51.35h-58.69
	C351,404,347.66,407.57,347.94,411.78z"/>
<polyline class="st6" points="190.32,423.83 219.77,444.11 190.32,452.8 205.95,421.41 224.11,441.69 207.6,455.69 198.53,415.62 
	"/>
<polygon class="st6" points="280,422 306,422 306,435.28 280,434.62 "/>
<path class="st6" d="M363.65,417.55c0,0,44.18-6.76,39.47,15.45s-34.16,20.28-34.16,20.28L390.69,433L363.65,417.55z"/>
<polyline class="st6" points="363.17,439.28 372.83,432.52 368,420.31 368,429.02 400.37,439.28 "/>
<path class="st6" d="M107.18,417.9c0,0,54.08,18.49,28,25.73s5.67-29.45,5.67-29.45l-33.67,32.35l33.67,9.66l-16.72-38.28"/>
<path class="st12" d="M117.74,344.24"/>
<path class="st12" d="M254.21,538.88"/>
<g>
	<path class="st13" d="M247.18,255.34"/>
</g>
<g>
	<path class="st13" d="M254.21,538.88"/>
</g>
<g>
	<g>
		<polygon points="131.89,358.15 121.44,255.91 215.21,297.98 		"/>
	</g>
</g>
<path class="st14" d="M167.22,320.69c0,0,79.23,85.93,79.23,231.4"/>
<g>
	<g>
		<polygon points="284.79,297.98 378.56,255.91 368.11,358.15 		"/>
	</g>
</g>
<path class="st14" d="M332.78,320.69c0,0-79.23,85.93-79.23,231.4"/>
</svg>
